Coordinates
version=1
nRows=14
nColumns=40
inDegrees=yes

Units are S.I. units (second, meters, Newtons, ...)
Angles are in degrees.

endheader
time	pelvis_tilt	pelvis_list	pelvis_rotation	pelvis_tx	pelvis_ty	pelvis_tz	hip_flexion_r	hip_adduction_r	hip_rotation_r	knee_angle_r	knee_angle_r_beta	ankle_angle_r	subtalar_angle_r	mtp_angle_r	hip_flexion_l	hip_adduction_l	hip_rotation_l	knee_angle_l	knee_angle_l_beta	ankle_angle_l	subtalar_angle_l	mtp_angle_l	lumbar_extension	lumbar_bending	lumbar_rotation	arm_flex_r	arm_add_r	arm_rot_r	elbow_flex_r	pro_sup_r	wrist_flex_r	wrist_dev_r	arm_flex_l	arm_add_l	arm_rot_l	elbow_flex_l	pro_sup_l	wrist_flex_l	wrist_dev_l
     57.43000000	     -5.43497967	     -4.69931005	      9.49723609	      0.90957213	      0.91560145	      0.48211918	     -1.98101567	      2.96552948	    -20.03292990	     17.00143803	     17.00143803	     18.26719396	     -5.49483581	     -1.85647813	     29.32728377	     -3.71944387	      4.45001811	     27.60621075	     27.60621075	      6.87255981	    -14.07387234	      3.87189991	     -7.93179839	      1.71614719	      4.92554324	     57.23940142	    -19.42771354	     -3.89474869	     73.21463154	     44.95571753	      0.00000000	      0.00000000	    -13.49989668	    -10.55460540	     12.55737076	     32.05320544	     44.31874801	      0.00000000	      0.00000000
     57.45000000	     -5.57937593	     -4.73664529	      9.10209970	      0.91088567	      0.91676980	      0.47834715	     -2.09944018	      2.59728835	    -19.86848125	     17.41671788	     17.41671788	     17.73568539	     -5.30123594	     -1.98178004	     28.78910956	     -3.68546844	      4.17915192	     27.47346088	     27.47346088	      7.35143826	    -14.19908439	      3.91408008	     -7.91942984	      1.80220386	      4.97040628	     56.99430297	    -19.23708494	     -3.86730547	     72.60611718	     44.97651014	      0.00000000	      0.00000000	    -13.18319871	    -10.73760048	     12.50616900	     32.27075821	     44.33788231	      0.00000000	      0.00000000
     57.47000000	     -5.78720400	     -4.61637889	      8.70035267	      0.91198480	      0.91784180	      0.47441241	     -2.09659637	      1.94094228	    -20.03650005	     17.93390656	     17.93390656	     16.63450884	     -4.93758094	     -4.20034569	     28.27594621	     -3.46293759	      3.83715750	     27.32429758	     27.32429758	      8.17250067	    -14.15980149	      4.98939193	     -7.75132532	      1.75294174	      4.32632677	     57.93801787	    -17.97191319	     -4.24596205	     68.35280186	     45.15851112	      0.00000000	      0.00000000	    -13.60312710	    -11.11428212	     12.50457508	     33.47498846	     44.41716994	      0.00000000	      0.00000000
     57.49000000	     -5.92037273	     -4.66758513	      8.27700409	      0.91310023	      0.91898926	      0.47064966	     -2.10769804	      1.55590685	    -19.81580491	     18.50166249	     18.50166249	     16.08233083	     -4.85346360	     -4.34657013	     27.68692775	     -3.45230367	      3.49569838	     27.09065870	     27.09065870	      8.56574991	    -14.23198408	      4.97374610	     -7.76193327	      1.92758321	      4.41135897	     57.34891203	    -17.99895657	     -4.27483938	     67.73861711	     45.17936084	      0.00000000	      0.00000000	    -13.24270549	    -11.34418139	     12.41234045	     33.72423373	     44.44173694	      0.00000000	      0.00000000
     57.51000000	     -6.08320675	     -4.54254699	      7.80534661	      0.91410549	      0.92000954	      0.46679287	     -2.05135533	      0.88923294	    -19.76581710	     19.12684801	     19.12684801	     14.81037386	     -4.85622192	     -6.97433205	     27.07353985	     -3.25676133	      3.05736528	     26.82229459	     26.82229459	      9.06240690	    -14.28603739	      5.45614843	     -7.64412992	      1.91770899	      4.12377981	     57.67670446	    -17.22931255	     -5.15345932	     63.86039788	     45.35915829	      0.00000000	      0.00000000	    -13.42697349	    -11.80495238	     12.39066583	     35.00022252	     44.54056753	      0.00000000	      0.00000000
     57.53000000	     -6.18162793	     -4.51010641	      7.33407637	      0.91516561	      0.92105683	      0.46298390	     -2.06531984	      0.37011104	    -19.56613163	     19.70213009	     19.70213009	     13.78011898	     -4.88909732	     -8.65493224	     26.42229944	     -3.15249772	      2.67158743	     26.57306657	     26.57306657	      9.45824294	    -14.41480520	      5.66575397	     -7.61868772	      2.04473469	      4.02867366	     57.20776287	    -16.98399449	     -5.72384736	     61.51246519	     45.46636085	      0.00000000	      0.00000000	    -13.27287936	    -12.19014848	     12.30282629	     35.70601673	     44.64928897	      0.00000000	      0.00000000
     57.55000000	     -6.26022218	     -4.43690605	      6.85447544	      0.91624967	      0.92208724	      0.45916472	     -2.02684389	     -0.21568485	    -19.32847134	     20.45484840	     20.45484840	     13.22552052	     -4.79744899	     -9.02193028	     25.73062132	     -3.01100622	      2.23206511	     26.28538630	     26.28538630	      9.76595090	    -14.52965809	      5.72360887	     -7.60077506	      2.16557889	      4.20914959	     56.08587128	    -17.29122617	     -5.96363699	     60.22492983	     45.51578522	      0.00000000	      0.00000000	    -12.83461288	    -12.49475085	     12.17763728	     36.04392837	     44.68499420	      0.00000000	      0.00000000
     57.57000000	     -6.28840781	     -4.41596885	      6.37832680	      0.91729562	      0.92295150	      0.45532719	     -2.09757974	     -0.74426658	    -19.12727218	     20.99723326	     20.99723326	     11.93537383	     -4.83623198	    -11.51583022	     25.08718423	     -2.86544585	      2.01305853	     26.18363121	     26.18363121	     10.27722566	    -14.86196943	      6.23132785	     -7.56885569	      2.35254371	      3.88219408	     55.83336118	    -16.52111044	     -7.38360496	     55.99116649	     45.71457204	      0.00000000	      0.00000000	    -12.75459203	    -12.89250277	     12.33629326	     36.86401315	     44.76235761	      0.00000000	      0.00000000
     57.59000000	     -6.20606822	     -4.52382848	      5.91402336	      0.91852924	      0.92383603	      0.45156695	     -2.23580653	     -1.09622990	    -18.78275075	     21.67029640	     21.67029640	     11.39617566	     -4.71554827	    -11.65918712	     24.38897966	     -2.88527413	      1.76341810	     26.16610083	     26.16610083	     10.67298513	    -15.11764359	      6.19641987	     -7.66904582	      2.75639645	      3.73065561	     54.20544163	    -16.52732852	     -7.43695688	     55.08924131	     45.73981485	      0.00000000	      0.00000000	    -12.37737873	    -13.13659885	     12.23331125	     37.05337684	     44.78455184	      0.00000000	      0.00000000
     57.61000000	     -6.24223910	     -4.37837852	      5.37501502	      0.91956747	      0.92440590	      0.44770296	     -2.13760292	     -1.82186454	    -18.39609028	     22.47929043	     22.47929043	      9.96512474	     -5.11498822	    -14.49405879	     23.76670362	     -2.58139759	      1.51007031	     26.12063302	     26.12063302	     11.31520697	    -15.55114246	      7.12143507	     -7.56846734	      2.80479407	      3.85247444	     53.57987220	    -16.42370264	     -9.22837028	     50.00457416	     45.98111504	      0.00000000	      0.00000000	    -11.89288593	    -13.53195321	     12.29964068	     37.70286646	     44.86988748	      0.00000000	      0.00000000
     57.63000000	     -6.17887077	     -4.36217100	      4.85379218	      0.92066996	      0.92477989	      0.44391074	     -2.01532783	     -2.38679394	    -17.83403318	     23.52042092	     23.52042092	      8.85607067	     -5.69911927	    -16.31294572	     23.18528077	     -2.42548915	      1.28228944	     26.30681106	     26.30681106	     11.97091784	    -15.94508922	      7.72606052	     -7.60537764	      3.05725153	      3.80402309	     52.16950262	    -16.36078370	    -10.39563005	     46.93978024	     46.11519999	      0.00000000	      0.00000000	    -11.36064459	    -13.79678839	     12.16244818	     38.10701347	     44.98350976	      0.00000000	      0.00000000
     57.65000000	     -5.91970350	     -4.48677789	      4.40100501	      0.92194836	      0.92514388	      0.44009346	     -2.07275419	     -2.80351816	    -17.40275653	     24.68006286	     24.68006286	      8.28158429	     -5.74520086	    -16.52784456	     22.46053516	     -2.42122294	      1.12808506	     26.58495122	     26.58495122	     12.49804522	    -16.33912926	      7.61314624	     -7.85662306	      3.53824636	      3.47425227	     49.94928277	    -16.28832137	    -10.47337160	     45.80809224	     46.14613308	      0.00000000	      0.00000000	    -10.84155887	    -13.94026158	     12.06283401	     38.31034861	     45.00651477	      0.00000000	      0.00000000
     57.67000000	     -5.96480920	     -4.37574860	      3.81388853	      0.92265723	      0.92467608	      0.43634452	     -1.32697902	     -3.56294917	    -16.48809146	     26.55981066	     26.55981066	      6.77735134	     -7.39028093	    -19.20600234	     22.20033794	     -2.12624407	      0.91552531	     27.13949316	     27.13949316	     13.56227272	    -16.80285998	      9.03986225	     -7.73318276	      3.67023371	      3.80372428	     48.73166631	    -16.54424755	    -12.46976340	     40.52497559	     46.40678621	      0.00000000	      0.00000000	     -9.65604694	    -14.11632695	     12.27482848	     38.15015604	     45.08349656	      0.00000000	      0.00000000
     57.69000000	     -5.83124102	     -4.35913051	      3.27781745	      0.92344575	      0.92404607	      0.43260216	     -0.58268450	     -4.27798497	    -15.77779360	     28.89768139	     28.89768139	      6.03863495	     -8.24455932	    -19.72302061	     21.77859364	     -1.95878224	      0.67401333	     27.69672969	     27.69672969	     14.22421534	    -17.26422458	      9.02243050	     -7.89254281	      3.97565456	      3.87570206	     46.21187054	    -16.90029788	    -12.84312087	     38.70349898	     46.47561737	      0.00000000	      0.00000000	     -8.70161158	    -14.23113871	     12.11130528	     38.55105635	     45.12966119	      0.00000000	      0.00000000
